<svg id="visual" viewBox="0 0 900 600" width="900" height="600" xmlns="http://www.w3.org/2000/svg" xmlns:xlink="http://www.w3.org/1999/xlink" version="1.1"><path d="M863 600L845 600L845 574L872 574L872 548L836 548L836 522L854 522L854 496L836 496L836 470L872 470L872 443L827 443L827 417L827 417L827 391L809 391L809 365L872 365L872 339L836 339L836 313L845 313L845 287L872 287L872 261L818 261L818 235L845 235L845 209L818 209L818 183L872 183L872 157L818 157L818 130L845 130L845 104L800 104L800 78L881 78L881 52L845 52L845 26L845 26L845 0L900 0L900 26L900 26L900 52L900 52L900 78L900 78L900 104L900 104L900 130L900 130L900 157L900 157L900 183L900 183L900 209L900 209L900 235L900 235L900 261L900 261L900 287L900 287L900 313L900 313L900 339L900 339L900 365L900 365L900 391L900 391L900 417L900 417L900 443L900 443L900 470L900 470L900 496L900 496L900 522L900 522L900 548L900 548L900 574L900 574L900 600L900 600Z" fill="#a7d8ea"></path><path d="M710 600L728 600L728 574L737 574L737 548L764 548L764 522L728 522L728 496L710 496L710 470L746 470L746 443L719 443L719 417L683 417L683 391L755 391L755 365L746 365L746 339L692 339L692 313L800 313L800 287L728 287L728 261L728 261L728 235L773 235L773 209L710 209L710 183L791 183L791 157L755 157L755 130L791 130L791 104L728 104L728 78L764 78L764 52L710 52L710 26L746 26L746 0L846 0L846 26L846 26L846 52L882 52L882 78L801 78L801 104L846 104L846 130L819 130L819 157L873 157L873 183L819 183L819 209L846 209L846 235L819 235L819 261L873 261L873 287L846 287L846 313L837 313L837 339L873 339L873 365L810 365L810 391L828 391L828 417L828 417L828 443L873 443L873 470L837 470L837 496L855 496L855 522L837 522L837 548L873 548L873 574L846 574L846 600L864 600Z" fill="#90c9e3"></path><path d="M647 600L683 600L683 574L710 574L710 548L746 548L746 522L683 522L683 496L674 496L674 470L665 470L665 443L701 443L701 417L611 417L611 391L683 391L683 365L719 365L719 339L656 339L656 313L773 313L773 287L656 287L656 261L647 261L647 235L728 235L728 209L647 209L647 183L773 183L773 157L719 157L719 130L710 130L710 104L710 104L710 78L701 78L701 52L629 52L629 26L674 26L674 0L747 0L747 26L711 26L711 52L765 52L765 78L729 78L729 104L792 104L792 130L756 130L756 157L792 157L792 183L711 183L711 209L774 209L774 235L729 235L729 261L729 261L729 287L801 287L801 313L693 313L693 339L747 339L747 365L756 365L756 391L684 391L684 417L720 417L720 443L747 443L747 470L711 470L711 496L729 496L729 522L765 522L765 548L738 548L738 574L729 574L729 600L711 600Z" fill="#7abbdd"></path><path d="M512 600L602 600L602 574L611 574L611 548L656 548L656 522L548 522L548 496L602 496L602 470L521 470L521 443L611 443L611 417L557 417L557 391L521 391L521 365L584 365L584 339L521 339L521 313L701 313L701 287L503 287L503 261L548 261L548 235L638 235L638 209L539 209L539 183L629 183L629 157L539 157L539 130L584 130L584 104L539 104L539 78L575 78L575 52L548 52L548 26L620 26L620 0L675 0L675 26L630 26L630 52L702 52L702 78L711 78L711 104L711 104L711 130L720 130L720 157L774 157L774 183L648 183L648 209L729 209L729 235L648 235L648 261L657 261L657 287L774 287L774 313L657 313L657 339L720 339L720 365L684 365L684 391L612 391L612 417L702 417L702 443L666 443L666 470L675 470L675 496L684 496L684 522L747 522L747 548L711 548L711 574L684 574L684 600L648 600Z" fill="#65abd7"></path><path d="M485 600L530 600L530 574L530 574L530 548L620 548L620 522L494 522L494 496L530 496L530 470L503 470L503 443L557 443L557 417L512 417L512 391L467 391L467 365L539 365L539 339L467 339L467 313L683 313L683 287L440 287L440 261L521 261L521 235L602 235L602 209L503 209L503 183L548 183L548 157L458 157L458 130L512 130L512 104L476 104L476 78L530 78L530 52L512 52L512 26L593 26L593 0L621 0L621 26L549 26L549 52L576 52L576 78L540 78L540 104L585 104L585 130L540 130L540 157L630 157L630 183L540 183L540 209L639 209L639 235L549 235L549 261L504 261L504 287L702 287L702 313L522 313L522 339L585 339L585 365L522 365L522 391L558 391L558 417L612 417L612 443L522 443L522 470L603 470L603 496L549 496L549 522L657 522L657 548L612 548L612 574L603 574L603 600L513 600Z" fill="#529cd1"></path><path d="M422 600L467 600L467 574L458 574L458 548L584 548L584 522L467 522L467 496L431 496L431 470L422 470L422 443L503 443L503 417L440 417L440 391L377 391L377 365L458 365L458 339L431 339L431 313L647 313L647 287L377 287L377 261L458 261L458 235L512 235L512 209L476 209L476 183L494 183L494 157L377 157L377 130L458 130L458 104L377 104L377 78L440 78L440 52L449 52L449 26L494 26L494 0L594 0L594 26L513 26L513 52L531 52L531 78L477 78L477 104L513 104L513 130L459 130L459 157L549 157L549 183L504 183L504 209L603 209L603 235L522 235L522 261L441 261L441 287L684 287L684 313L468 313L468 339L540 339L540 365L468 365L468 391L513 391L513 417L558 417L558 443L504 443L504 470L531 470L531 496L495 496L495 522L621 522L621 548L531 548L531 574L531 574L531 600L486 600Z" fill="#428cca"></path><path d="M188 600L197 600L197 574L332 574L332 548L404 548L404 522L377 522L377 496L305 496L305 470L197 470L197 443L233 443L233 417L188 417L188 391L170 391L170 365L296 365L296 339L350 339L350 313L341 313L341 287L287 287L287 261L170 261L170 235L278 235L278 209L152 209L152 183L269 183L269 157L188 157L188 130L134 130L134 104L233 104L233 78L206 78L206 52L350 52L350 26L251 26L251 0L495 0L495 26L450 26L450 52L441 52L441 78L378 78L378 104L459 104L459 130L378 130L378 157L495 157L495 183L477 183L477 209L513 209L513 235L459 235L459 261L378 261L378 287L648 287L648 313L432 313L432 339L459 339L459 365L378 365L378 391L441 391L441 417L504 417L504 443L423 443L423 470L432 470L432 496L468 496L468 522L585 522L585 548L459 548L459 574L468 574L468 600L423 600Z" fill="#367cc2"></path><path d="M53 600L98 600L98 574L89 574L89 548L71 548L71 522L125 522L125 496L35 496L35 470L71 470L71 443L107 443L107 417L35 417L35 391L35 391L35 365L44 365L44 339L107 339L107 313L80 313L80 287L26 287L26 261L71 261L71 235L53 235L53 209L53 209L53 183L134 183L134 157L71 157L71 130L35 130L35 104L71 104L71 78L44 78L44 52L98 52L98 26L44 26L44 0L252 0L252 26L351 26L351 52L207 52L207 78L234 78L234 104L135 104L135 130L189 130L189 157L270 157L270 183L153 183L153 209L279 209L279 235L171 235L171 261L288 261L288 287L342 287L342 313L351 313L351 339L297 339L297 365L171 365L171 391L189 391L189 417L234 417L234 443L198 443L198 470L306 470L306 496L378 496L378 522L405 522L405 548L333 548L333 574L198 574L198 600L189 600Z" fill="#2f6cb9"></path><path d="M0 600L0 600L0 574L0 574L0 548L0 548L0 522L0 522L0 496L0 496L0 470L0 470L0 443L0 443L0 417L0 417L0 391L0 391L0 365L0 365L0 339L0 339L0 313L0 313L0 287L0 287L0 261L0 261L0 235L0 235L0 209L0 209L0 183L0 183L0 157L0 157L0 130L0 130L0 104L0 104L0 78L0 78L0 52L0 52L0 26L0 26L0 0L45 0L45 26L99 26L99 52L45 52L45 78L72 78L72 104L36 104L36 130L72 130L72 157L135 157L135 183L54 183L54 209L54 209L54 235L72 235L72 261L27 261L27 287L81 287L81 313L108 313L108 339L45 339L45 365L36 365L36 391L36 391L36 417L108 417L108 443L72 443L72 470L36 470L36 496L126 496L126 522L72 522L72 548L90 548L90 574L99 574L99 600L54 600Z" fill="#2f5baf"></path></svg>