<svg id="visual" viewBox="0 0 1200 500" width="1200" height="500" xmlns="http://www.w3.org/2000/svg" xmlns:xlink="http://www.w3.org/1999/xlink" version="1.1"><path d="M1151 500L1151 500L1151 471L1103 471L1103 441L1103 441L1103 412L1115 412L1115 382L1127 382L1127 353L1115 353L1115 324L1151 324L1151 294L1151 294L1151 265L1139 265L1139 235L1091 235L1091 206L1103 206L1103 176L1127 176L1127 147L1103 147L1103 118L1139 118L1139 88L1151 88L1151 59L1127 59L1127 29L1103 29L1103 0L1200 0L1200 29L1200 29L1200 59L1200 59L1200 88L1200 88L1200 118L1200 118L1200 147L1200 147L1200 176L1200 176L1200 206L1200 206L1200 235L1200 235L1200 265L1200 265L1200 294L1200 294L1200 324L1200 324L1200 353L1200 353L1200 382L1200 382L1200 412L1200 412L1200 441L1200 441L1200 471L1200 471L1200 500L1200 500Z" fill="#a7d8ea"></path><path d="M791 500L839 500L839 471L851 471L851 441L827 441L827 412L887 412L887 382L803 382L803 353L935 353L935 324L959 324L959 294L995 294L995 265L887 265L887 235L863 235L863 206L839 206L839 176L959 176L959 147L875 147L875 118L959 118L959 88L899 88L899 59L839 59L839 29L911 29L911 0L1104 0L1104 29L1128 29L1128 59L1152 59L1152 88L1140 88L1140 118L1104 118L1104 147L1128 147L1128 176L1104 176L1104 206L1092 206L1092 235L1140 235L1140 265L1152 265L1152 294L1152 294L1152 324L1116 324L1116 353L1128 353L1128 382L1116 382L1116 412L1104 412L1104 441L1104 441L1104 471L1152 471L1152 500L1152 500Z" fill="#94ceea"></path><path d="M563 500L611 500L611 471L635 471L635 441L599 441L599 412L623 412L623 382L599 382L599 353L623 353L623 324L575 324L575 294L683 294L683 265L575 265L575 235L611 235L611 206L515 206L515 176L671 176L671 147L599 147L599 118L707 118L707 88L647 88L647 59L587 59L587 29L527 29L527 0L912 0L912 29L840 29L840 59L900 59L900 88L960 88L960 118L876 118L876 147L960 147L960 176L840 176L840 206L864 206L864 235L888 235L888 265L996 265L996 294L960 294L960 324L936 324L936 353L804 353L804 382L888 382L888 412L828 412L828 441L852 441L852 471L840 471L840 500L792 500Z" fill="#84c4eb"></path><path d="M455 500L383 500L383 471L467 471L467 441L371 441L371 412L419 412L419 382L419 382L419 353L467 353L467 324L443 324L443 294L539 294L539 265L407 265L407 235L407 235L407 206L335 206L335 176L455 176L455 147L491 147L491 118L515 118L515 88L431 88L431 59L359 59L359 29L431 29L431 0L528 0L528 29L588 29L588 59L648 59L648 88L708 88L708 118L600 118L600 147L672 147L672 176L516 176L516 206L612 206L612 235L576 235L576 265L684 265L684 294L576 294L576 324L624 324L624 353L600 353L600 382L624 382L624 412L600 412L600 441L636 441L636 471L612 471L612 500L564 500Z" fill="#78b9eb"></path><path d="M383 500L299 500L299 471L359 471L359 441L251 441L251 412L371 412L371 382L287 382L287 353L383 353L383 324L311 324L311 294L455 294L455 265L323 265L323 235L347 235L347 206L287 206L287 176L395 176L395 147L407 147L407 118L395 118L395 88L311 88L311 59L275 59L275 29L383 29L383 0L432 0L432 29L360 29L360 59L432 59L432 88L516 88L516 118L492 118L492 147L456 147L456 176L336 176L336 206L408 206L408 235L408 235L408 265L540 265L540 294L444 294L444 324L468 324L468 353L420 353L420 382L420 382L420 412L372 412L372 441L468 441L468 471L384 471L384 500L456 500Z" fill="#71adeb"></path><path d="M347 500L251 500L251 471L287 471L287 441L215 441L215 412L287 412L287 382L251 382L251 353L323 353L323 324L275 324L275 294L383 294L383 265L263 265L263 235L311 235L311 206L215 206L215 176L323 176L323 147L347 147L347 118L347 118L347 88L251 88L251 59L239 59L239 29L347 29L347 0L384 0L384 29L276 29L276 59L312 59L312 88L396 88L396 118L408 118L408 147L396 147L396 176L288 176L288 206L348 206L348 235L324 235L324 265L456 265L456 294L312 294L312 324L384 324L384 353L288 353L288 382L372 382L372 412L252 412L252 441L360 441L360 471L300 471L300 500L384 500Z" fill="#70a0e9"></path><path d="M251 500L179 500L179 471L239 471L239 441L167 441L167 412L215 412L215 382L203 382L203 353L239 353L239 324L215 324L215 294L287 294L287 265L203 265L203 235L251 235L251 206L167 206L167 176L263 176L263 147L287 147L287 118L287 118L287 88L203 88L203 59L143 59L143 29L251 29L251 0L348 0L348 29L240 29L240 59L252 59L252 88L348 88L348 118L348 118L348 147L324 147L324 176L216 176L216 206L312 206L312 235L264 235L264 265L384 265L384 294L276 294L276 324L324 324L324 353L252 353L252 382L288 382L288 412L216 412L216 441L288 441L288 471L252 471L252 500L348 500Z" fill="#7592e5"></path><path d="M167 500L95 500L95 471L119 471L119 441L83 441L83 412L119 412L119 382L83 382L83 353L107 353L107 324L107 324L107 294L167 294L167 265L83 265L83 235L131 235L131 206L71 206L71 176L167 176L167 147L155 147L155 118L167 118L167 88L83 88L83 59L83 59L83 29L179 29L179 0L252 0L252 29L144 29L144 59L204 59L204 88L288 88L288 118L288 118L288 147L264 147L264 176L168 176L168 206L252 206L252 235L204 235L204 265L288 265L288 294L216 294L216 324L240 324L240 353L204 353L204 382L216 382L216 412L168 412L168 441L240 441L240 471L180 471L180 500L252 500Z" fill="#7f83dd"></path><path d="M0 500L0 500L0 471L0 471L0 441L0 441L0 412L0 412L0 382L0 382L0 353L0 353L0 324L0 324L0 294L0 294L0 265L0 265L0 235L0 235L0 206L0 206L0 176L0 176L0 147L0 147L0 118L0 118L0 88L0 88L0 59L0 59L0 29L0 29L0 0L180 0L180 29L84 29L84 59L84 59L84 88L168 88L168 118L156 118L156 147L168 147L168 176L72 176L72 206L132 206L132 235L84 235L84 265L168 265L168 294L108 294L108 324L108 324L108 353L84 353L84 382L120 382L120 412L84 412L84 441L120 441L120 471L96 471L96 500L168 500Z" fill="#8b72d3"></path></svg>